<svg width="48" height="50" viewBox="0 0 48 50" fill="none" xmlns="http://www.w3.org/2000/svg">
<rect width="48" height="50" fill="white"/>
<g clip-path="url(#clip0_241_464)">
<path d="M34.625 16.825L24.3125 10.9125L14 16.825V10.9125L24.3125 5L34.625 10.9125V16.825Z" fill="#A435F0"/>
<path d="M14 21.7754H19.4313V34.7691C19.4313 38.1379 21.975 39.7879 24.3125 39.7879C26.7188 39.7879 29.1938 38.1379 29.1938 34.7691V21.7754H34.625V35.1129C34.625 38.2066 33.6625 40.6129 31.6688 42.2629C29.675 43.9129 27.2688 44.6691 24.2437 44.6691C21.2187 44.6691 18.8125 43.8441 16.8875 42.2629C14.9625 40.5441 14 38.2754 14 35.1816V21.7754Z" fill="black"/>
</g>
<defs>
<clipPath id="clip0_241_464">
<rect width="20.625" height="39.6" fill="white" transform="translate(14 5)"/>
</clipPath>
</defs>
</svg>
