<svg width="23" height="22" viewBox="0 0 23 22" fill="none" xmlns="http://www.w3.org/2000/svg">
<g clip-path="url(#clip0_1_64)">
<g clip-path="url(#clip1_1_64)">
<g clip-path="url(#clip2_1_64)">
<mask id="mask0_1_64" style="mask-type:luminance" maskUnits="userSpaceOnUse" x="0" y="0" width="23" height="22">
<path d="M22.3998 0H0.39978V22H22.3998V0Z" fill="white"/>
</mask>
<g mask="url(#mask0_1_64)">
<path fill-rule="evenodd" clip-rule="evenodd" d="M11.4089 0C5.32113 0 0.39978 4.95765 0.39978 11.0909C0.39978 15.9935 3.55306 20.1435 7.92749 21.6123C8.47442 21.7228 8.67476 21.3737 8.67476 21.0801C8.67476 20.823 8.6567 19.9416 8.6567 19.0234C5.59426 19.6845 4.95652 17.7012 4.95652 17.7012C4.46436 16.4158 3.73514 16.0855 3.73514 16.0855C2.7328 15.4061 3.80815 15.4061 3.80815 15.4061C4.92001 15.4795 5.50346 16.5445 5.50346 16.5445C6.48755 18.2337 8.07329 17.7564 8.71124 17.4626C8.80231 16.7464 9.09413 16.2507 9.40397 15.9753C6.96142 15.7182 4.39157 14.7634 4.39157 10.5032C4.39157 9.29129 4.82875 8.29978 5.52147 7.52863C5.41216 7.25326 5.02931 6.11458 5.63097 4.59053C5.63097 4.59053 6.56056 4.29669 8.65647 5.72898C9.55384 5.4862 10.4793 5.36273 11.4089 5.36168C12.3384 5.36168 13.286 5.49038 14.1611 5.72898C16.2572 4.29669 17.1868 4.59053 17.1868 4.59053C17.7884 6.11458 17.4054 7.25326 17.2961 7.52863C18.007 8.29978 18.4262 9.29129 18.4262 10.5032C18.4262 14.7634 15.8563 15.6997 13.3955 15.9753C13.7967 16.3241 14.1428 16.9851 14.1428 18.0318C14.1428 19.5191 14.1248 20.7128 14.1248 21.0799C14.1248 21.3737 14.3253 21.7228 14.872 21.6126C19.2464 20.1433 22.3997 15.9935 22.3997 11.0909C22.4177 4.95765 17.4784 0 11.4089 0Z" fill="#24292F"/>
</g>
</g>
</g>
</g>
<defs>
<clipPath id="clip0_1_64">
<rect width="22" height="22" fill="white" transform="translate(0.39978)"/>
</clipPath>
<clipPath id="clip1_1_64">
<rect width="22" height="22" fill="white" transform="translate(0.39978)"/>
</clipPath>
<clipPath id="clip2_1_64">
<rect width="22" height="22" fill="white" transform="translate(0.39978)"/>
</clipPath>
</defs>
</svg>
