<svg width="23" height="22" viewBox="0 0 23 22" fill="none" xmlns="http://www.w3.org/2000/svg">
<g clip-path="url(#clip0_1_54)">
<g clip-path="url(#clip1_1_54)">
<g clip-path="url(#clip2_1_54)">
<mask id="mask0_1_54" style="mask-type:luminance" maskUnits="userSpaceOnUse" x="0" y="0" width="23" height="22">
<path d="M22.3998 0H0.39978V22H22.3998V0Z" fill="white"/>
</mask>
<g mask="url(#mask0_1_54)">
<path d="M11.3998 1.98086C14.3388 1.98086 14.6869 1.99375 15.8428 2.04531C16.917 2.09258 17.497 2.27305 17.8838 2.42344C18.3951 2.62109 18.7646 2.86172 19.147 3.24414C19.5338 3.63086 19.7701 3.99609 19.9678 4.50742C20.1182 4.89413 20.2986 5.4785 20.3459 6.54844C20.3975 7.70857 20.4103 8.05663 20.4103 10.9914C20.4103 13.9305 20.3975 14.2785 20.3459 15.4344C20.2986 16.5086 20.1182 17.0887 19.9678 17.4754C19.7701 17.9867 19.5295 18.3562 19.147 18.7387C18.7603 19.1254 18.3951 19.3617 17.8838 19.5594C17.497 19.7098 16.9127 19.8902 15.8428 19.9375C14.6826 19.9891 14.3345 20.0019 11.3998 20.0019C8.46072 20.0019 8.11266 19.9891 6.95683 19.9375C5.88259 19.8902 5.30253 19.7098 4.9158 19.5594C4.40447 19.3617 4.03494 19.1211 3.65252 18.7387C3.2658 18.3519 3.02947 17.9867 2.83181 17.4754C2.68142 17.0887 2.50095 16.5043 2.45369 15.4344C2.40212 14.2742 2.38924 13.9262 2.38924 10.9914C2.38924 8.05237 2.40212 7.70431 2.45369 6.54844C2.50095 5.4742 2.68142 4.89413 2.83181 4.50742C3.02947 3.99609 3.27009 3.62656 3.65252 3.24414C4.03924 2.85742 4.40447 2.62109 4.9158 2.42344C5.30253 2.27305 5.8869 2.09258 6.95683 2.04531C8.11266 1.99375 8.46072 1.98086 11.3998 1.98086ZM11.3998 0C8.41346 0 8.03965 0.0128906 6.86659 0.0644531C5.69784 0.116016 4.89431 0.305078 4.19822 0.575781C3.47204 0.859375 2.85759 1.2332 2.24744 1.84766C1.63299 2.45781 1.25916 3.07227 0.975562 3.79414C0.704858 4.49453 0.515796 5.29375 0.464233 6.4625C0.412671 7.63982 0.39978 8.01368 0.39978 11C0.39978 13.9863 0.412671 14.3601 0.464233 15.5332C0.515796 16.7019 0.704858 17.5055 0.975562 18.2016C1.25916 18.9277 1.63299 19.5422 2.24744 20.1524C2.85759 20.7625 3.47205 21.1406 4.19392 21.4199C4.89431 21.6906 5.69353 21.8797 6.86228 21.9312C8.03534 21.9828 8.40916 21.9957 11.3955 21.9957C14.3818 21.9957 14.7557 21.9828 15.9287 21.9312C17.0975 21.8797 17.901 21.6906 18.597 21.4199C19.3189 21.1406 19.9334 20.7625 20.5435 20.1524C21.1537 19.5422 21.5318 18.9277 21.8111 18.2059C22.0818 17.5055 22.2709 16.7062 22.3225 15.5375C22.374 14.3644 22.3869 13.9906 22.3869 11.0043C22.3869 8.01799 22.374 7.64413 22.3225 6.47112C22.2709 5.30237 22.0818 4.49883 21.8111 3.80274C21.5404 3.07226 21.1666 2.45781 20.5521 1.84766C19.942 1.2375 19.3275 0.859375 18.6057 0.580076C17.9053 0.309375 17.106 0.120312 15.9373 0.06875C14.76 0.0128906 14.3861 0 11.3998 0Z" fill="#24292F"/>
<path d="M11.3998 5.34961C8.28026 5.34961 5.74939 7.88048 5.74939 11C5.74939 14.1195 8.28026 16.6504 11.3998 16.6504C14.5193 16.6504 17.0501 14.1195 17.0501 11C17.0501 7.88048 14.5193 5.34961 11.3998 5.34961ZM11.3998 14.6652C9.37595 14.6652 7.73452 13.0238 7.73452 11C7.73452 8.97617 9.37595 7.33474 11.3998 7.33474C13.4236 7.33474 15.065 8.97617 15.065 11C15.065 13.0238 13.4236 14.6652 11.3998 14.6652Z" fill="#24292F"/>
<path d="M18.5927 5.12627C18.5927 5.85676 17.9998 6.4454 17.2736 6.4454C16.5432 6.4454 15.9545 5.85246 15.9545 5.12627C15.9545 4.3958 16.5475 3.80713 17.2736 3.80713C17.9998 3.80713 18.5927 4.4001 18.5927 5.12627Z" fill="#24292F"/>
</g>
</g>
</g>
</g>
<defs>
<clipPath id="clip0_1_54">
<rect width="22" height="22" fill="white" transform="translate(0.39978)"/>
</clipPath>
<clipPath id="clip1_1_54">
<rect width="22" height="22" fill="white" transform="translate(0.39978)"/>
</clipPath>
<clipPath id="clip2_1_54">
<rect width="22" height="22" fill="white" transform="translate(0.39978)"/>
</clipPath>
</defs>
</svg>
