<svg width="23" height="22" viewBox="0 0 23 22" fill="none" xmlns="http://www.w3.org/2000/svg">
<g clip-path="url(#clip0_1_72)">
<g clip-path="url(#clip1_1_72)">
<g clip-path="url(#clip2_1_72)">
<mask id="mask0_1_72" style="mask-type:luminance" maskUnits="userSpaceOnUse" x="0" y="0" width="23" height="22">
<path d="M22.3998 0H0.39978V22H22.3998V0Z" fill="white"/>
</mask>
<g mask="url(#mask0_1_72)">
<path d="M20.7758 0H2.02381C1.59309 0 1.18001 0.171103 0.875448 0.475668C0.570883 0.78023 0.39978 1.19331 0.39978 1.62403V20.376C0.39978 20.8067 0.570883 21.2198 0.875448 21.5243C1.18001 21.8289 1.59309 22 2.02381 22H20.7758C21.2065 22 21.6196 21.8289 21.9241 21.5243C22.2287 21.2198 22.3998 20.8067 22.3998 20.376V1.62403C22.3998 1.19331 22.2287 0.78023 21.9241 0.475668C21.6196 0.171103 21.2065 0 20.7758 0ZM6.95702 18.7413H3.64936V8.23474H6.95702V18.7413ZM5.30088 6.77875C4.9257 6.77664 4.55954 6.66343 4.24862 6.45343C3.93771 6.24342 3.69597 5.946 3.55392 5.59872C3.41187 5.25145 3.37588 4.86988 3.45047 4.50217C3.52508 4.13446 3.70693 3.79709 3.97309 3.53263C4.23925 3.26818 4.57778 3.08849 4.94596 3.01626C5.31412 2.94402 5.69546 2.98246 6.04182 3.12674C6.38818 3.27101 6.68403 3.51465 6.89203 3.82691C7.10006 4.13917 7.21089 4.50605 7.21061 4.88125C7.21414 5.13246 7.16707 5.3818 7.0722 5.6144C6.97732 5.847 6.83661 6.05816 6.65837 6.23521C6.48017 6.41231 6.26814 6.55169 6.0349 6.64505C5.8017 6.73842 5.55204 6.78388 5.30088 6.77875ZM19.1487 18.7504H15.8425V13.0106C15.8425 11.3178 15.123 10.7953 14.1941 10.7953C13.2133 10.7953 12.2508 11.5347 12.2508 13.0533V18.7504H8.94311V8.24235H12.1239V9.69833H12.1667C12.486 9.05208 13.6044 7.9475 15.3109 7.9475C17.1564 7.9475 19.1502 9.04292 19.1502 12.2513L19.1487 18.7504Z" fill="#24292F"/>
</g>
</g>
</g>
</g>
<defs>
<clipPath id="clip0_1_72">
<rect width="22" height="22" fill="white" transform="translate(0.39978)"/>
</clipPath>
<clipPath id="clip1_1_72">
<rect width="22" height="22" fill="white" transform="translate(0.39978)"/>
</clipPath>
<clipPath id="clip2_1_72">
<rect width="22" height="22" fill="white" transform="translate(0.39978)"/>
</clipPath>
</defs>
</svg>
