<svg width="180" height="75" viewBox="0 0 180 75" fill="none" xmlns="http://www.w3.org/2000/svg">
<rect y="0.589844" width="180" height="73.7705" fill="white"/>
<path d="M31.7686 48.7467C29.9982 48.7467 28.3339 48.428 26.7759 47.7906C25.2414 47.1296 23.8841 46.209 22.7037 45.0286C21.547 43.8483 20.6382 42.4909 19.9772 40.9565C19.3398 39.3985 19.0211 37.7224 19.0211 35.9283C19.0211 34.1106 19.3516 32.4345 20.0126 30.9001C20.6736 29.3421 21.5942 27.9847 22.7745 26.828C23.9549 25.6477 25.3359 24.7388 26.9175 24.1014C28.4991 23.4404 30.2106 23.11 32.0519 23.11C34.1057 23.11 35.9942 23.4995 37.7175 24.2785C39.4408 25.0339 40.869 26.108 42.0021 27.5008L38.7444 30.7585C37.9654 29.7434 36.9975 28.9644 35.8408 28.4214C34.6841 27.8785 33.4093 27.607 32.0165 27.607C30.4349 27.607 29.0303 27.9611 27.8027 28.6693C26.5988 29.3539 25.6545 30.3218 24.97 31.5729C24.2854 32.8004 23.9431 34.2404 23.9431 35.8929C23.9431 37.5454 24.2736 39.009 24.9345 40.2837C25.6191 41.5349 26.5398 42.5145 27.6965 43.2227C28.8768 43.9309 30.2224 44.285 31.7332 44.285C33.2913 44.285 34.625 44.0018 35.7345 43.4352C36.8441 42.845 37.6939 41.9952 38.2841 40.8857C38.8742 39.7526 39.1693 38.3716 39.1693 36.7427L42.3208 38.9027L31.45 38.7965V34.6182H44.1267V35.2909C44.1267 38.2654 43.5955 40.7559 42.5332 42.7624C41.4709 44.7454 40.0073 46.2444 38.1424 47.2595C36.3011 48.2509 34.1765 48.7467 31.7686 48.7467ZM55.5046 48.7467C53.7105 48.7467 52.117 48.369 50.7242 47.6136C49.3315 46.8345 48.222 45.7723 47.3957 44.4267C46.5931 43.0811 46.1918 41.5467 46.1918 39.8234C46.1918 38.1237 46.5813 36.6129 47.3603 35.2909C48.1629 33.9454 49.2488 32.8831 50.618 32.1041C51.9872 31.3014 53.5098 30.9001 55.1859 30.9001C56.8383 30.9001 58.2901 31.2778 59.5413 32.0332C60.8161 32.765 61.8075 33.7801 62.5157 35.0785C63.2475 36.3532 63.6134 37.805 63.6134 39.4339C63.6134 39.7408 63.5898 40.0595 63.5426 40.39C63.519 40.6968 63.46 41.0509 63.3656 41.4522L48.9892 41.4877V38.0175L61.2056 37.9821L59.3288 39.4339C59.2816 38.4188 59.0928 37.569 58.7623 36.8844C58.4554 36.1998 57.9951 35.6804 57.3813 35.3263C56.7911 34.9486 56.0593 34.7598 55.1859 34.7598C54.2652 34.7598 53.4626 34.9722 52.778 35.3972C52.0934 35.7985 51.5623 36.3768 51.1846 37.1322C50.8305 37.8641 50.6534 38.7375 50.6534 39.7526C50.6534 40.7913 50.8423 41.7001 51.22 42.4791C51.6213 43.2345 52.1879 43.8247 52.9197 44.2496C53.6515 44.6509 54.5013 44.8516 55.4692 44.8516C56.3426 44.8516 57.1334 44.71 57.8416 44.4267C58.5498 44.1198 59.1636 43.6713 59.6829 43.0811L62.4095 45.8077C61.5833 46.7755 60.5682 47.5073 59.3642 48.0031C58.1839 48.4988 56.8974 48.7467 55.5046 48.7467ZM77.9904 48.3926V38.5841C77.9904 37.569 77.6717 36.7427 77.0343 36.1054C76.3969 35.468 75.5707 35.1493 74.5556 35.1493C73.8946 35.1493 73.3045 35.2909 72.7851 35.5742C72.2658 35.8575 71.8527 36.2588 71.5458 36.7782C71.2625 37.2975 71.1209 37.8995 71.1209 38.5841L69.315 37.6634C69.315 36.3178 69.5982 35.1493 70.1648 34.1578C70.755 33.1427 71.5576 32.3519 72.5727 31.7854C73.6114 31.2188 74.7799 30.9355 76.0782 30.9355C77.3294 30.9355 78.4507 31.2542 79.4422 31.8916C80.4337 32.5054 81.2127 33.3198 81.7792 34.3349C82.3458 35.3263 82.6291 36.4004 82.6291 37.5572V48.3926H77.9904ZM66.4822 48.3926V31.2896H71.1209V48.3926H66.4822ZM90.0128 48.3926V23.4995H94.7578V48.3926H90.0128ZM85.1263 27.6778V23.4995H94.4037V27.6778H85.1263ZM110.876 48.3926V38.5841C110.876 37.569 110.557 36.7427 109.92 36.1054C109.282 35.468 108.456 35.1493 107.441 35.1493C106.78 35.1493 106.19 35.2909 105.671 35.5742C105.151 35.8575 104.738 36.2588 104.431 36.7782C104.148 37.2975 104.006 37.8995 104.006 38.5841L102.2 37.6634C102.2 36.3178 102.484 35.1493 103.05 34.1578C103.64 33.1427 104.443 32.3519 105.458 31.7854C106.497 31.2188 107.665 30.9355 108.964 30.9355C110.215 30.9355 111.336 31.2542 112.328 31.8916C113.319 32.5054 114.098 33.3198 114.665 34.3349C115.231 35.3263 115.515 36.4004 115.515 37.5572V48.3926H110.876ZM99.3677 48.3926V31.2896H104.006V48.3926H99.3677ZM130.759 48.3926V38.5841C130.759 37.569 130.441 36.7427 129.803 36.1054C129.166 35.468 128.34 35.1493 127.325 35.1493C126.664 35.1493 126.073 35.2909 125.554 35.5742C125.035 35.8575 124.622 36.2588 124.315 36.7782C124.031 37.2975 123.89 37.8995 123.89 38.5841L122.084 37.6634C122.084 36.3178 122.367 35.1493 122.934 34.1578C123.5 33.1427 124.279 32.3519 125.271 31.7854C126.286 31.2188 127.443 30.9355 128.741 30.9355C130.039 30.9355 131.184 31.2188 132.176 31.7854C133.191 32.3519 133.982 33.1309 134.548 34.1224C135.115 35.1139 135.398 36.2588 135.398 37.5572V48.3926H130.759ZM119.251 48.3926V22.7913H123.89V48.3926H119.251Z" fill="#101828"/>
<path d="M139.63 46.4804C139.63 45.607 139.843 44.9932 140.268 44.6391C140.693 44.285 141.2 44.108 141.79 44.108C142.404 44.108 142.923 44.285 143.348 44.6391C143.797 44.9932 144.021 45.607 144.021 46.4804C144.021 47.3303 143.797 47.9441 143.348 48.3218C142.923 48.6995 142.404 48.8883 141.79 48.8883C141.2 48.8883 140.693 48.6995 140.268 48.3218C139.843 47.9441 139.63 47.3303 139.63 46.4804Z" fill="#EE57D0"/>
<path d="M146.556 48.3926H162.844V51.5441H146.556V48.3926Z" fill="#A456D9"/>
</svg>
