<svg width="200" height="200" viewBox="0 0 200 200" fill="none" xmlns="http://www.w3.org/2000/svg">
<g clip-path="url(#clip0_1302_27)">
<path d="M35.4167 1.61203e-05H164.583C169.236 -0.00448106 173.843 0.932018 178.142 2.75592C182.441 4.57981 186.347 7.25531 189.636 10.6293C192.926 14.0032 195.535 18.0094 197.313 22.4186C199.091 26.8277 200.004 31.5533 200 36.3248V163.675C200.004 168.447 199.091 173.172 197.313 177.581C195.535 181.991 192.926 185.997 189.636 189.371C186.347 192.745 182.441 195.42 178.142 197.244C173.843 199.068 169.236 200.004 164.583 200H35.4167C30.7645 200.004 26.157 199.068 21.8581 197.244C17.5592 195.42 13.6532 192.745 10.3635 189.371C7.07392 185.997 4.46532 181.991 2.68702 177.581C0.908717 173.172 -0.00436903 168.447 1.57173e-05 163.675V36.3248C-0.00436903 31.5533 0.908717 26.8277 2.68702 22.4186C4.46532 18.0094 7.07392 14.0032 10.3635 10.6293C13.6532 7.25531 17.5592 4.57981 21.8581 2.75592C26.157 0.932018 30.7645 -0.00448106 35.4167 1.61203e-05V1.61203e-05Z" fill="#777BB3"/>
<path d="M47.1798 111.685C52.0427 111.685 55.6731 110.788 57.9701 109.02C60.2426 107.271 61.8121 104.239 62.6348 100.011C63.4018 96.0582 63.1096 93.2985 61.7666 91.8092C60.3933 90.288 57.4244 89.5165 52.9424 89.5165H45.1709L40.8626 111.685H47.1798ZM21.7616 138.992C21.4008 138.992 21.0582 138.831 20.8289 138.552C20.5992 138.274 20.506 137.907 20.575 137.553L31.9929 78.806C32.1033 78.2381 32.6011 77.8278 33.1799 77.8278H57.7884C65.5223 77.8278 71.2788 79.9277 74.8971 84.07C78.5347 88.234 79.658 94.0546 78.2356 101.37C77.6568 104.35 76.6613 107.118 75.2768 109.596C73.8906 112.077 72.0587 114.372 69.831 116.42C67.1644 118.915 64.1462 120.725 60.8686 121.79C57.6429 122.841 53.5002 123.374 48.5559 123.374H38.5914L35.7458 138.014C35.6353 138.582 35.138 138.992 34.5592 138.992H21.7616Z" fill="black"/>
<path d="M46.168 90.7257H52.9426C58.3521 90.7257 60.2312 91.9127 60.8696 92.6201C61.9289 93.7946 62.1288 96.271 61.448 99.7813C60.683 103.711 59.265 106.497 57.2328 108.062C55.1522 109.664 51.7697 110.476 47.1801 110.476H42.3296L46.168 90.7257ZM57.7886 76.6186H33.1798C32.0222 76.6186 31.027 77.4392 30.8061 78.5754L19.3882 137.322C19.2504 138.031 19.4366 138.764 19.8957 139.322C20.3552 139.879 21.0396 140.201 21.7619 140.201H34.559C35.717 140.201 36.7122 139.381 36.9331 138.245L39.5884 124.583H48.5561C53.6274 124.583 57.8967 124.03 61.2441 122.94C64.6866 121.821 67.8539 119.925 70.6572 117.303C72.9756 115.17 74.8853 112.776 76.3322 110.186C77.7796 107.596 78.8195 104.707 79.4229 101.6C80.9203 93.9002 79.7039 87.7342 75.8079 83.2747C71.9498 78.858 65.8869 76.6186 57.7886 76.6186ZM39.3958 112.894H47.1801C52.3397 112.894 56.1828 111.922 58.708 109.978C61.2336 108.034 62.9369 104.789 63.8221 100.242C64.6689 95.8756 64.2832 92.7946 62.6649 90.9998C61.0446 89.205 57.8044 88.3073 52.9426 88.3073H44.1745L39.3958 112.894V112.894ZM57.7886 79.0369C65.1917 79.0369 70.5923 80.9797 73.9868 84.8656C77.381 88.7515 78.4032 94.1755 77.0489 101.139C76.4915 104.008 75.5487 106.63 74.2214 109.007C72.8925 111.384 71.1574 113.558 69.0131 115.53C66.4577 117.921 63.6189 119.625 60.4952 120.64C57.3715 121.658 53.3929 122.164 48.5561 122.164H37.5945L34.559 137.783H21.7619L33.1798 79.0369H57.7886" fill="white"/>
<path d="M107.578 123.374C107.217 123.374 106.875 123.212 106.645 122.934C106.415 122.655 106.322 122.289 106.391 121.934L111.442 95.9409C111.922 93.469 111.804 91.6947 111.108 90.945C110.683 90.4867 109.404 89.7181 105.624 89.7181H96.4737L90.1234 122.395C90.013 122.963 89.5152 123.374 88.9364 123.374H76.24C75.8789 123.374 75.5367 123.212 75.3069 122.934C75.0772 122.655 74.9841 122.288 75.053 121.934L86.4709 63.1874C86.5813 62.6195 87.0791 62.2092 87.6579 62.2092H100.354C100.715 62.2092 101.058 62.3704 101.287 62.6489C101.517 62.9278 101.61 63.2942 101.541 63.6489L98.786 77.8278H108.63C116.129 77.8278 121.214 79.1498 124.175 81.8697C127.194 84.6444 128.136 89.0808 126.975 95.0574L121.663 122.395C121.553 122.963 121.055 123.374 120.476 123.374H107.578Z" fill="black"/>
<path d="M100.355 60.9997H87.6582C86.5002 60.9997 85.505 61.8203 85.2842 62.9565L73.8663 121.703C73.7284 122.412 73.9146 123.145 74.3741 123.703C74.8336 124.26 75.518 124.583 76.2403 124.583H88.9367C90.0943 124.583 91.0898 123.762 91.3107 122.626L97.4707 90.9269H105.624C109.398 90.9269 110.19 91.7331 110.222 91.7677C110.451 92.014 110.752 93.1547 110.255 95.7101L105.204 121.703C105.066 122.412 105.253 123.145 105.712 123.703C106.172 124.26 106.856 124.583 107.578 124.583H120.476C121.634 124.583 122.629 123.762 122.85 122.626L128.162 95.2881C129.409 88.8709 128.342 84.0572 124.994 80.9794C121.798 78.0447 116.446 76.6183 108.63 76.6183H100.253L102.729 63.8796C102.866 63.1706 102.68 62.437 102.221 61.88C101.761 61.3225 101.077 60.9997 100.355 60.9997ZM100.355 63.418L97.3192 79.0367H108.63C115.747 79.0367 120.656 80.2789 123.357 82.7601C126.059 85.243 126.868 89.2659 125.789 94.827L120.476 122.164H107.578L112.629 96.1716C113.204 93.2147 112.993 91.1978 111.995 90.1224C110.996 89.0471 108.872 88.5086 105.624 88.5086H95.4768L88.9367 122.164H76.2403L87.6582 63.418H100.355Z" fill="white"/>
<path d="M147.065 111.685C151.927 111.685 155.558 110.788 157.855 109.02C160.127 107.271 161.697 104.24 162.52 100.011C163.287 96.0582 162.995 93.2985 161.651 91.8092C160.278 90.288 157.309 89.5165 152.827 89.5165H145.056L140.747 111.685H147.065ZM121.647 138.992C121.286 138.992 120.943 138.831 120.714 138.552C120.484 138.274 120.391 137.907 120.46 137.553L131.878 78.806C131.988 78.2381 132.486 77.8278 133.065 77.8278H157.673C165.407 77.8278 171.164 79.9277 174.782 84.07C178.42 88.2336 179.543 94.0542 178.121 101.37C177.541 104.35 176.546 107.118 175.161 109.596C173.775 112.077 171.943 114.372 169.716 116.42C167.049 118.915 164.031 120.725 160.753 121.79C157.528 122.841 153.385 123.374 148.441 123.374H138.476L135.631 138.014C135.52 138.582 135.023 138.992 134.444 138.992H121.647Z" fill="black"/>
<path d="M146.053 90.7257H152.827C158.237 90.7257 160.116 91.9127 160.754 92.6201C161.814 93.7946 162.014 96.271 161.333 99.7809C160.568 103.711 159.149 106.497 157.118 108.062C155.037 109.664 151.655 110.476 147.065 110.476H142.215L146.053 90.7257ZM157.673 76.6186H133.065C131.907 76.6186 130.912 77.4392 130.691 78.5754L119.273 137.322C119.136 138.031 119.322 138.764 119.781 139.322C120.24 139.879 120.925 140.201 121.647 140.201H134.444C135.602 140.201 136.597 139.381 136.818 138.245L139.473 124.583H148.441C153.512 124.583 157.782 124.03 161.129 122.94C164.571 121.821 167.74 119.924 170.543 117.302C172.861 115.17 174.77 112.776 176.217 110.186C177.664 107.596 178.704 104.707 179.308 101.6C180.805 93.8998 179.589 87.7338 175.693 83.2743C171.835 78.858 165.772 76.6186 157.673 76.6186ZM139.281 112.894H147.065C152.225 112.894 156.068 111.922 158.593 109.978C161.119 108.034 162.822 104.789 163.707 100.242C164.554 95.8756 164.168 92.7946 162.55 90.9998C160.929 89.205 157.689 88.3073 152.827 88.3073H144.059L139.281 112.894ZM157.673 79.0369C165.077 79.0369 170.477 80.9797 173.872 84.8656C177.266 88.7515 178.288 94.1755 176.934 101.139C176.376 104.008 175.434 106.63 174.106 109.007C172.777 111.384 171.042 113.558 168.898 115.53C166.343 117.921 163.504 119.625 160.38 120.64C157.256 121.658 153.278 122.164 148.441 122.164H137.479L134.444 137.783H121.647L133.065 79.0369H157.673" fill="white"/>
</g>
<defs>
<clipPath id="clip0_1302_27">
<rect width="200" height="200" fill="white"/>
</clipPath>
</defs>
</svg>
